# xmcd
#
# Track frame offsets: 
#        150
#        14958
#        29706
#        49488
#        68030
#        90552
#        108199
#        122614
#        138749
#        154829
#        173217
#        199201
#        216124
#        230275
#        252016
#        268920
#
# Disc length: 3798 seconds
#
# Revision: 0
# Processed by: cddbd v1.5.2PL0 Copyright (c) Steve Scherf et al.
# Submitted via: ExactAudioCopy v1.0b3
#
DISCID=ef0ed410
DTITLE=Various Artist - Mestres do Sertanejo
DYEAR=2014
DGENRE=Sertanejo
TTITLE0=Zezé Di Camargo e Luciano - Sonho de Amor
TTITLE1=Victor e Leo - O tempo não apaga
TTITLE2=Bruno e Marrone - Já não sei de mais nada
TTITLE3=Jorge e Mateus - Aí Já Era
TTITLE4=Roberta Miranda - É amor demais
TTITLE5=Zezé Di Camargo e Luciano - Você vai ver
TTITLE6=Victor e Leo - Borboletas
TTITLE7=Bruno e Marrone - Vidro Fumê
TTITLE8=Jorge e Mateus - Prisão sem Grade
TTITLE9=Roberta Miranda - Quem Sentiu
TTITLE10=Zezé Di Camargo e Luciano - Vem Ficar Comigo - A Ferro e Fogo
TTITLE11=Victor e Leo - Fada
TTITLE12=Bruno e Marrone - Pela Porta da Frente
TTITLE13=Roberta Miranda - Vá Com Deus
TTITLE14=Victor e Leo - Na Linha do Tempo
TTITLE15=Jorge e Mateus - Amor pra Recomeçar
EXTD=
EXTT0=
EXTT1=
EXTT2=
EXTT3=
EXTT4=
EXTT5=
EXTT6=
EXTT7=
EXTT8=
EXTT9=
EXTT10=
EXTT11=
EXTT12=
EXTT13=
EXTT14=
EXTT15=
PLAYORDER=
